inDegrees=yes
name=IK-live
DataType=double
version=3
OpenSimVersion=4.1
endheader
time	pelvis_tilt	pelvis_list	pelvis_rotation	pelvis_tx	pelvis_ty	pelvis_tz	hip_flexion_r	hip_adduction_r	hip_rotation_r	knee_angle_r	ankle_angle_r	subtalar_angle_r	mtp_angle_r	hip_flexion_l	hip_adduction_l	hip_rotation_l	knee_angle_l	ankle_angle_l	subtalar_angle_l	mtp_angle_l	lumbar_extension	lumbar_bending	lumbar_rotation	neck_flex	neck_latbend	neck_rot	arm_flex_r	arm_add_r	arm_rot_r	elbow_flex_r	pro_sup_r	wrist_flex_r	wrist_dev_r	arm_flex_l	arm_add_l	arm_rot_l	elbow_flex_l	pro_sup_l	wrist_flex_l	wrist_dev_l
0	-15.02601946521511	2.071258180760554	-181.9522806728631	0.2341366603171506	0.04326292228651554	-1.326684523481465	-22.57111049808712	-1.592333296580208	-3.241293259437918	5.899560354604904	2.451982624139334	1.987972377786656	0	-24.74726905741138	-3.395401115642767	-11.58004428511942	9.793848132074926	-0.4439473045988533	4.250290820099795	0	-21.37711699760957	1.659277491615732	3.206407148933037	0	0	0	89.28725208552332	-14.99356273233153	-0.4045252651008996	74.73764869882707	45.04112997929602	0	4.996554870952428	89.21051320339339	-15.06455236472122	-0.4831516643497641	74.73452612935166	45.02378232710017	0	4.996554870952428
